<svg width="24" height="24" viewBox="0 0 24 24" fill="none" xmlns="http://www.w3.org/2000/svg">
<g clip-path="url(#clip0_57_32)">
<path opacity="0.2" d="M20.4694 5.03063C20.0635 4.62464 19.5817 4.3026 19.0513 4.08287C18.521 3.86315 17.9525 3.75006 17.3785 3.75006C16.8044 3.75006 16.236 3.86315 15.7056 4.08287C15.1753 4.3026 14.6934 4.62464 14.2875 5.03063L11.0307 8.2875C10.9997 8.31844 10.9707 8.34938 10.9369 8.38125C10.2049 8.19819 9.43795 8.20785 8.71079 8.40927C7.98362 8.6107 7.32102 8.99703 6.78753 9.53063L3.53065 12.7875C2.71165 13.6064 2.25106 14.7168 2.25 15.8749C2.24895 17.0331 2.70751 18.1443 3.52503 18.9647C3.93075 19.3717 4.41275 19.6947 4.94344 19.9153C5.47413 20.1358 6.04311 20.2496 6.6178 20.25C7.1925 20.2505 7.76165 20.1376 8.29267 19.9178C8.8237 19.6981 9.30619 19.3758 9.71253 18.9694L12.9694 15.7125C13.0003 15.6816 13.0294 15.6506 13.0585 15.6188C13.7912 15.8029 14.5591 15.7937 15.2872 15.5923C16.0153 15.3908 16.6787 15.0039 17.2125 14.4694L20.4694 11.2125C20.8754 10.8066 21.1974 10.3248 21.4172 9.79442C21.6369 9.26407 21.75 8.69563 21.75 8.12156C21.75 7.5475 21.6369 6.97906 21.4172 6.44871C21.1974 5.91836 20.8754 5.43649 20.4694 5.03063Z" fill="#FA8F21"/>
<path d="M13.2543 6.06374L14.2855 5.03249C14.6914 4.62651 15.1733 4.30446 15.7036 4.08474C16.234 3.86501 16.8024 3.75192 17.3765 3.75192C17.9505 3.75192 18.519 3.86501 19.0493 4.08474C19.5797 4.30446 20.0615 4.62651 20.4674 5.03249C20.8734 5.43835 21.1954 5.92022 21.4152 6.45057C21.6349 6.98092 21.748 7.54936 21.748 8.12343C21.748 8.69749 21.6349 9.26593 21.4152 9.79628C21.1954 10.3266 20.8734 10.8085 20.4674 11.2144L18.1818 13.5L17.2124 14.4694C16.8061 14.8758 16.3236 15.1981 15.7926 15.4178C15.2615 15.6376 14.6924 15.7504 14.1177 15.75C13.543 15.7496 12.974 15.6358 12.4433 15.4153C11.9126 15.1947 11.4306 14.8717 11.0249 14.4647C10.6049 14.0449 10.2752 13.5437 10.056 12.9918C9.83671 12.44 9.73256 11.8492 9.74991 11.2556" stroke="#FA8F21" stroke-width="2" stroke-linecap="round" stroke-linejoin="round"/>
<path d="M10.7457 17.9363L9.71448 18.9675C9.30814 19.3739 8.82565 19.6962 8.29463 19.916C7.7636 20.1357 7.19446 20.2486 6.61976 20.2482C6.04506 20.2477 5.47609 20.134 4.94539 19.9134C4.4147 19.6929 3.9327 19.3698 3.52698 18.9628C2.70947 18.1425 2.2509 17.0312 2.25195 15.8731C2.25301 14.7149 2.7136 13.6045 3.5326 12.7856L6.7876 9.53063C7.19347 9.12465 7.67534 8.8026 8.20569 8.58287C8.73604 8.36315 9.30448 8.25006 9.87854 8.25006C10.4526 8.25006 11.021 8.36315 11.5514 8.58287C12.0817 8.8026 12.5636 9.12465 12.9695 9.53063C13.3912 9.9504 13.7224 10.4521 13.9426 11.0049C14.1629 11.5576 14.2675 12.1496 14.2501 12.7444" stroke="#FA8F21" stroke-width="2" stroke-linecap="round" stroke-linejoin="round"/>
</g>
<defs>
<clipPath id="clip0_57_32">
<rect width="24" height="24" fill="white"/>
</clipPath>
</defs>
</svg>
