<svg width="689" height="511" viewBox="0 0 689 511" fill="none" xmlns="http://www.w3.org/2000/svg">
<mask id="mask0_57_406" style="mask-type:alpha" maskUnits="userSpaceOnUse" x="0" y="0" width="689" height="511">
<rect width="689" height="511" fill="#D9D9D9"/>
</mask>
<g mask="url(#mask0_57_406)">
<path d="M1061.81 247.553L1065.35 254.037L1068.3 256.984L1072.43 257.573L1073.6 256.984L1075.96 253.447L1077.73 252.268L1079.5 251.089H1081.27L1082.45 251.679L1084.22 253.447L1085.99 255.216L1086.58 256.984L1087.76 258.752L1088.35 261.11L1087.76 261.699V264.057V264.647V266.415H1088.35V265.826H1090.12L1092.48 265.236H1094.25L1096.01 264.057L1096.6 262.289L1097.19 261.11L1096.6 259.342V258.163V257.573L1097.78 255.805L1098.37 255.216V251.679L1099.55 250.5V249.91H1100.14L1101.32 249.321L1104.86 246.374L1107.22 243.426L1107.81 242.837L1108.4 241.658L1108.99 237.532L1110.76 231.048V228.69H1112.53L1118.42 228.101L1123.73 227.511L1128.45 225.743L1136.12 220.437V219.848L1136.71 218.669L1137.89 216.311L1138.48 215.132L1146.73 212.775L1147.32 212.185L1150.27 209.238L1154.4 208.059L1156.17 207.47L1159.71 206.291L1162.65 203.933L1165.01 202.754L1165.6 205.701L1163.83 209.827V211.596L1164.42 213.364L1165.6 215.132L1166.78 215.722L1168.55 216.311H1170.91L1172.09 215.722L1175.04 213.954L1180.94 211.596L1182.12 209.827L1182.71 209.238L1183.29 206.88L1183.88 206.291L1185.06 205.701H1185.65V206.88L1186.83 207.47L1188.6 208.648L1190.96 210.417L1192.73 212.185L1193.91 214.543L1193.32 216.901L1191.55 224.564V225.743L1192.14 226.922L1192.73 227.511V228.101L1192.14 229.279H1191.55H1188.6H1187.42L1185.65 230.458L1184.47 231.637L1183.29 232.227H1181.53L1180.94 231.637L1179.76 229.869L1178.58 229.279H1177.99H1175.63L1171.5 229.869L1169.73 232.227L1169.14 235.763L1170.32 239.89L1170.91 241.658L1171.5 243.426L1174.45 245.784L1176.81 246.963L1177.4 248.142V248.732V250.5V251.679L1180.35 255.805V257.573L1182.12 264.647L1177.99 267.005L1175.04 270.541L1173.27 275.257L1172.09 284.099L1171.5 285.278L1160.3 292.941L1156.76 295.888L1146.73 307.677L1145.55 311.803L1143.78 313.572L1137.3 317.109L1132.58 320.056L1129.04 323.592L1123.14 327.129L1121.37 329.487L1119.01 335.382L1117.83 336.561L1116.07 338.918L1110.76 343.045L1106.63 344.813L1102.5 345.402L1089.53 344.813L1081.27 345.992L1077.14 346.581H1075.96L1073.6 345.992H1072.43L1070.66 347.171L1068.3 351.887L1067.12 353.065L1064.76 353.655L1063.58 354.834L1062.99 356.602L1061.81 358.371L1060.63 358.96L1050.02 360.139L1037.63 368.391L1034.68 369.57L1033.5 368.981L1032.32 367.802L1029.96 368.391L1025.25 369.57L1022.89 368.981L1020.53 367.802L1018.17 366.623L1015.81 367.212L1013.45 368.981L1011.68 368.391L1008.14 365.444L1006.38 364.854H1004.02L1001.66 365.444L999.889 367.212L998.709 368.391L997.529 368.981L996.35 368.391V367.802V366.033L998.119 363.676L998.709 361.318L999.299 358.96L998.709 354.244L999.889 352.476L1001.66 350.708L1005.2 347.76L1011.09 345.402L1012.86 344.223L1014.04 343.634L1018.17 343.045L1019.35 342.455L1028.79 337.15L1030.55 334.203L1028.2 331.256L1025.84 330.077L1023.48 328.898L1021.12 328.308H1018.17L1015.81 328.898L1012.27 331.845L1009.91 331.256L1008.73 329.487V327.129L1009.32 318.877L1010.5 317.109L1014.63 314.161L1016.99 312.393L1018.17 310.035L1018.76 307.677V304.73L1018.17 303.551L1016.99 301.193L1016.4 300.014L1016.99 298.835L1017.58 298.246L1018.17 297.656L1018.76 297.067L1019.35 294.709L1019.94 284.099L1020.53 281.741L1021.71 279.383L1024.66 277.025L1028.79 275.257L1029.38 274.078L1032.91 269.363L1034.09 268.184H1034.68L1035.86 267.594H1037.04L1037.63 267.005L1038.81 265.236L1039.4 264.647H1039.99L1041.76 265.236L1042.35 264.647L1045.89 259.342L1047.07 258.163L1047.66 257.573L1052.96 252.858L1055.91 249.321L1057.09 248.142L1059.45 247.553H1061.81ZM958.607 139.682L960.966 140.271L962.146 141.45V143.808L960.377 144.987L955.659 146.755L945.633 147.345L942.095 149.113L936.197 158.544L933.249 160.313L931.48 160.902L930.3 160.313L927.941 157.955L930.89 149.703L941.505 142.04H942.685L943.274 142.629H945.043H946.223L950.351 140.861H951.531L953.889 141.45L955.069 140.861H955.659L958.017 139.682H958.607ZM683.792 320.645L686.152 323.592L688.51 327.129L689.69 331.256L687.921 335.971L686.741 337.74L683.203 340.097L677.895 345.402L676.126 348.939L674.357 350.118L667.28 351.887L666.101 353.065L664.921 353.655L657.255 352.476L655.485 353.065L650.178 356.013L648.999 357.192L648.409 358.96L647.819 361.318L646.639 361.907H644.28L641.922 360.728L638.973 357.192L637.204 356.602L619.512 354.244H618.332L617.153 353.655L609.486 351.297L608.897 350.708L607.717 348.35L607.127 347.76L602.41 345.402L601.82 344.813L598.281 339.508L597.102 338.918H595.923H595.333L594.743 333.613L592.974 330.666L588.846 324.771L587.666 323.592L586.487 322.414H585.307H583.538L582.359 321.824L581.179 320.645L580.59 319.466L579.41 320.056L578.82 319.466L578.231 318.287L577.641 317.698L575.282 316.519L574.103 315.93L569.385 315.34L567.615 314.751L563.488 311.803L556.411 308.267L555.231 306.498L554.642 303.551L553.462 301.783L548.744 300.604V300.014V298.246H548.154H547.565L546.975 298.835H546.385L543.437 298.246L538.129 297.656L532.821 295.888H530.462H528.693L526.334 296.478L523.975 297.067L523.386 298.246L522.206 300.604L519.847 300.014L515.13 296.478H514.54L513.36 297.067H512.181H511.001L508.053 294.709L505.104 295.299H500.386L495.668 294.709L490.95 292.941L486.233 291.762L484.463 291.172L479.156 287.046L477.977 285.278L475.617 281.152L474.438 279.973L473.258 278.794L469.72 276.436L467.951 274.668L467.361 272.31L467.951 269.363L469.72 266.415L472.669 263.468L477.977 258.752L480.925 257.573L483.874 256.394L488.002 255.805H489.181L492.72 253.447L494.489 252.858L499.207 252.268L502.745 251.679H503.335L505.104 250.5H506.284H510.412L519.847 251.679H521.027L522.206 250.5L528.104 249.321L530.462 249.91L535.18 251.679H536.36L538.719 249.91L541.667 249.321L548.154 247.553H550.513L552.283 248.142L552.872 249.91L554.052 251.089L568.205 252.268L570.564 251.679L585.307 241.068L586.487 241.658L587.077 244.016L588.256 245.195L592.974 249.321L600.051 259.342L602.41 261.699L604.179 262.878L606.538 263.468L608.897 264.057L610.666 262.878L613.025 262.289L615.384 263.468L618.332 265.236L620.102 267.594V272.31L620.691 275.257L621.281 279.973L621.871 281.741L623.05 282.92L630.127 286.457H631.896L632.486 284.688L634.255 283.509L637.204 282.33L642.511 281.741H644.87L647.229 282.92L648.999 284.688L649.588 288.225L650.768 289.404L659.024 294.12L662.562 298.246L666.69 307.677L669.639 311.803L672.588 314.161L680.844 318.287L683.792 320.645ZM559.359 162.671L561.128 162.081H564.667L567.026 162.671V165.029L563.488 167.386L562.308 168.565V170.334H560.539H558.769L557.59 170.923L557 172.692V174.46L559.359 176.818V179.175L558.769 180.354L557 182.712L556.411 183.891L555.231 183.302L554.052 182.712L552.872 181.533L552.283 180.354L551.103 179.765L549.923 180.354L548.744 180.944L547.565 181.533L546.385 180.944L545.796 179.765L546.385 176.228L546.975 175.639L548.744 175.049L548.154 173.87V173.281L549.923 172.692L551.693 171.513V170.334L549.923 169.155L550.513 166.797L548.154 162.081L548.744 159.723L551.103 161.492L551.693 162.081L552.283 163.26L552.872 165.618L553.462 166.797L555.821 167.976L557.59 166.797L558.769 165.029L559.359 162.671ZM539.898 150.292L540.488 152.061L541.077 153.239L542.257 153.829L543.437 155.597L541.667 156.187V157.366V158.544L541.077 159.134H537.539H536.36L535.18 156.776L534.001 156.187L532.232 156.776L531.052 159.134L529.873 159.723H528.104L528.693 160.902L529.873 162.081L530.462 161.492L531.052 160.313L532.232 161.492L531.052 164.439L529.873 165.618H529.283L528.104 165.029L526.924 166.208L526.334 169.155V170.923L526.924 172.692L528.104 175.049L529.873 176.818L526.924 177.407L521.616 175.049L519.258 176.818L518.668 175.639H519.258L518.668 174.46L519.258 172.692L521.616 169.155V167.976V165.029V163.85H520.437H519.847L519.258 163.26V160.313V156.776V156.187L519.847 155.008H521.027H522.796H523.386V154.418L523.975 152.65V151.471L523.386 147.345L524.565 146.755V144.987L523.386 141.45H523.975L528.104 139.682L528.693 141.45V143.808L529.283 145.577L531.052 146.755L536.36 145.577L538.719 146.166H539.308L540.488 146.755L541.077 147.934L541.667 149.113V149.703L540.488 150.292H539.898ZM982.197 120.819V122.588L981.607 123.177L981.017 123.767L980.427 124.356L979.838 132.608L978.658 134.966L975.12 136.735H969.812L960.377 135.556L950.941 137.324L946.223 137.913L943.864 135.556V131.43L945.633 128.482L956.248 119.64L958.017 119.051L959.787 117.872L963.325 117.282L965.094 116.693H969.222L972.171 117.282L975.12 118.461L978.068 120.23L978.658 119.64L979.838 119.051L981.017 119.64L982.197 120.819ZM944.454 123.177V124.356V127.303L943.864 128.482L941.505 129.661H935.018L932.069 130.251L930.3 132.019L929.71 134.966L930.3 139.682V142.04L929.71 143.808H927.351L924.403 142.629L921.454 141.45L920.275 140.861V139.682H919.095L918.505 140.861L917.916 142.629L918.505 144.398V145.577L919.095 146.755L923.813 154.418V157.955L919.095 161.492H917.916L912.018 162.671H911.429L909.659 163.85L909.07 164.439L904.942 163.85H903.762L901.403 165.618L900.813 166.208H899.044L890.788 167.976L889.609 169.155L886.07 172.692L884.891 173.281L877.224 175.639L872.506 176.818L860.122 176.228L858.353 176.818L855.994 177.407H854.225L851.276 176.228L843.61 175.049L838.302 175.639L833.584 177.997L830.046 181.533L825.328 183.891L810.585 188.017L805.277 190.375L800.559 193.323L799.38 193.912H798.2H797.021L795.252 193.323H793.483L791.713 192.144L789.944 190.375L788.765 189.786L786.995 190.965L785.226 195.091L783.457 196.27L782.867 195.091L781.688 189.786L780.509 188.017L775.791 185.66H771.073H766.355L761.637 185.07L756.919 183.302L754.56 182.712L752.202 183.302L751.022 186.249V188.607L752.202 190.965L751.612 193.323L748.073 197.449H742.766L732.74 194.501L727.433 195.091L723.305 196.27L716.228 200.396H713.869H707.382L703.843 198.628H703.254H700.305H699.126L697.356 196.859L692.049 191.554L691.459 189.786L690.28 186.839L688.51 185.66H686.152L683.792 186.249L682.613 188.017L681.434 189.786L680.844 191.554L678.485 192.144L676.126 191.554L674.357 190.375L673.177 189.786L671.408 188.607H670.229L667.28 189.196L666.101 188.607L664.331 186.839L663.742 186.249L661.383 183.891L660.793 183.302L659.614 182.712H659.024L656.665 182.123L653.716 182.712L648.999 183.891H646.639L642.511 183.302H641.332H639.563L638.383 183.891H637.204L636.024 183.302L628.948 187.428L624.23 186.839L620.102 186.249L617.743 185.07L613.025 180.944L610.666 179.765H608.307L606.538 180.354L602.41 182.123L598.281 183.891L588.846 185.07L585.307 187.428H584.718L584.128 188.017V188.607L584.718 189.786V190.375L583.538 190.965L582.359 192.144H580.59L580 190.965L578.82 184.481L578.231 183.891H576.461H575.282L572.923 182.712L571.154 181.533L569.385 179.175L568.795 176.818V159.723V156.776L570.564 153.829L576.461 147.345L577.051 144.987L575.872 142.04V137.913L579.41 141.45L582.359 143.808L583.538 143.219H584.128L587.077 140.861H588.256H588.846H589.436L590.615 142.04L591.795 140.861L592.384 139.092L593.564 137.324V136.735L594.153 134.966L595.333 134.377L596.512 134.966H597.102L598.281 135.556L598.871 134.966H599.461H600.641H601.23L601.82 136.145H602.41L604.179 135.556L604.769 134.377V132.608L605.358 130.84H605.948L607.717 132.019L608.307 133.198H608.897L610.076 130.84L614.204 126.714L615.384 124.356L616.563 123.767L623.64 120.819L635.434 121.998L637.204 120.819L639.563 117.282L640.742 116.104L642.511 116.693L643.101 118.461L643.691 120.23L644.87 121.998H647.819L652.537 119.64L654.896 120.819L656.075 121.409L657.845 122.588H659.614H660.793L661.383 120.819V119.64L660.793 116.693L665.511 118.461L667.87 120.23L669.049 121.998L670.229 123.767L676.126 127.303L678.485 127.893L686.152 127.303L688.51 127.893L690.28 128.482L693.228 129.072L697.356 129.661L702.664 129.072H705.613L707.382 130.251L710.33 133.787L711.51 135.556L714.459 137.324L720.356 139.092L722.715 139.682H725.074H726.253L727.433 140.861L728.612 141.45L731.561 140.861H732.74L733.33 141.45L733.92 142.629L735.099 143.219L736.279 143.808H737.458H739.817L740.996 144.398L742.176 145.577L745.125 149.703L747.483 151.471L752.791 156.776L755.74 157.955L757.509 157.366L759.278 156.776L760.458 156.187H762.817L765.175 157.366L765.765 157.955L766.355 159.134L766.945 160.313H767.534L769.303 159.723L769.893 159.134L774.021 156.187H775.201V153.829V152.65H776.38L779.329 153.239L778.149 150.882V147.934L779.329 145.577L781.098 144.398L782.867 144.987L787.585 149.703H789.354L795.841 147.345L798.2 146.755H799.38L800.559 147.345H801.149H802.329H802.918L805.277 144.987L807.636 146.166L809.995 147.345H812.354L817.072 144.987L817.661 144.398L818.251 143.219L818.841 142.629L822.969 142.04L824.148 141.45L824.738 140.271L825.918 139.682H827.097L828.277 140.271L828.867 141.45L829.456 142.04L827.687 143.808L827.097 145.577L827.687 147.934L829.456 149.703L830.636 150.292L832.994 149.703H834.174L835.353 150.292L837.713 152.061L839.482 152.65L841.251 153.239L851.866 162.081L854.815 163.85H858.353L877.224 160.313L880.173 159.723L883.122 157.366L884.891 154.418L884.301 151.471L883.711 150.882L881.942 150.292L881.352 149.703L880.763 149.113V148.524L881.352 147.345V146.166L882.532 145.577L888.429 142.629L890.198 141.45L894.327 136.145L896.686 134.966L900.813 134.377L903.173 133.787L904.942 134.377L906.711 133.787L908.48 132.608L910.839 132.019H913.198L914.967 130.84L917.326 127.303L920.275 125.535L927.351 123.177L935.018 114.925L935.608 113.156L934.428 111.977L931.48 111.388H926.762L924.403 111.977L921.454 113.156L919.095 114.925L916.736 116.693L916.147 116.104L912.018 116.693H911.429V115.514V113.746L914.967 108.441L915.557 106.672L916.147 103.725L917.326 102.546L922.044 99.5988L924.403 97.8305H925.582L926.762 97.241L927.941 98.42L929.121 100.188L929.71 100.778L932.069 101.367L933.839 102.546L937.377 104.904L939.146 106.672V108.441L938.556 112.567L942.095 120.23L943.864 121.998L944.454 123.177ZM986.914 395.506L989.863 397.275L990.453 399.043L989.863 403.759L989.273 406.116H986.914L983.966 405.527H982.197L979.838 406.116L973.94 411.422L972.761 412.011L970.992 412.601H969.812L969.222 413.78V416.727L968.633 417.906V419.085L965.684 422.032L962.146 422.621L958.017 423.211L939.736 427.926L937.377 429.105L936.197 430.874L937.967 432.053V432.642L927.351 435L923.224 434.411L920.275 431.463L919.685 420.853L919.095 418.495L919.685 417.906L922.044 417.316L924.403 414.958L932.069 412.601H934.428H936.787H938.556L939.146 412.011L940.915 411.422L942.095 410.832H943.274H944.454L947.402 409.653L952.71 403.759L955.069 402.58L960.377 400.222L962.146 399.043L962.735 397.864V394.917L963.915 393.738L964.505 393.149L965.684 393.738H966.274L966.863 391.97L967.453 389.612L969.812 387.843L973.94 385.485L980.427 383.717L982.786 381.949L985.145 377.823L986.324 376.644L987.504 378.412V380.18L986.914 381.949L985.145 384.307L987.504 385.485L986.914 388.433L985.145 390.201V391.38L985.735 391.97L984.555 393.149L983.376 394.327H982.786L983.376 395.506H984.555H985.735H986.914ZM817.661 376.644L820.021 377.823L822.379 377.233L824.148 377.823L825.328 380.77L824.738 385.485L823.559 387.254L819.431 390.791L816.482 392.559L815.302 393.738H814.713H814.123H812.944L812.354 394.327L811.764 394.917L811.175 396.096L808.226 397.275L801.149 396.096L795.841 396.685L793.483 396.096L791.124 394.917L789.944 393.738L789.354 393.149L788.765 392.559L790.534 390.791L804.687 383.717L808.816 377.823L810.585 376.054L813.533 375.465H815.892L817.661 376.644ZM995.76 343.045L996.94 344.813L1000.48 345.992V347.76L999.299 348.939L995.17 350.708L993.991 351.887L993.401 353.655L992.222 354.244L990.453 353.655L989.273 351.297L987.504 352.476L990.453 357.781L991.043 360.728L989.273 361.907L989.863 363.676V364.854H988.684H986.914L986.324 363.676L985.735 362.497L983.966 361.318L983.376 361.907L982.786 363.676L981.017 365.444H978.658L978.068 362.497V358.96L978.658 357.192L980.427 355.423L982.786 353.065L984.555 351.297L986.914 345.992L988.684 344.223L989.863 343.045L992.812 341.866H994.581L995.76 343.045ZM1049.43 116.104L1051.19 116.693V117.872L1050.61 120.819L1050.02 121.409L1048.84 121.998L1043.53 123.177H1035.86L1033.5 123.767L1031.73 125.535L1030.55 127.303L1028.79 131.43L1026.43 135.556L1021.71 140.861H1020.53L1019.35 139.682L1018.76 137.913L1018.17 137.324L1016.4 137.913L1014.04 139.682L1012.27 142.04L1011.68 143.219L1011.09 143.808L1009.32 144.398L1008.14 144.987L1007.55 146.166L1008.14 147.345L1012.27 152.65L1011.09 155.008L1009.32 156.187H1007.55H1004.61L1003.43 155.597L1001.07 152.061L999.889 150.882L994.581 156.187L993.401 156.776L991.632 158.544L990.453 159.134L988.684 158.544H988.094L986.324 156.187L981.607 153.239L979.248 152.061L977.479 153.829L976.889 154.418L975.709 155.008H974.53H973.94L972.761 153.829H972.171L971.581 153.239H970.402L969.812 153.829H969.222L968.043 151.471L970.992 147.934L978.068 142.629L983.376 137.913L985.145 137.324L986.324 136.735L995.76 132.608L997.529 131.43L998.119 130.84V128.482L996.35 127.303L992.222 126.714H984.555L983.966 124.946L985.735 123.177L988.094 121.409L989.863 120.819L991.043 121.409L992.812 121.998H994.581L995.76 120.819H997.529L999.889 118.461L1001.66 117.872H1004.61L1007.55 118.461L1006.97 119.64V121.409V122.588L1005.79 123.767L1002.84 126.714L1001.66 129.072V130.84L1002.84 132.019L1005.2 133.198L1007.55 133.787L1009.91 133.198L1011.68 132.019L1012.27 129.661L1011.68 127.893L1009.91 126.714L1009.32 125.535L1011.68 124.356L1012.86 125.535H1014.63L1015.81 123.767L1016.4 121.998L1015.81 120.23L1015.22 119.051L1014.63 118.461V116.693L1015.22 116.104L1016.4 115.514H1016.99H1018.17L1019.35 116.104V116.693V117.872V118.461L1021.12 119.051H1023.48L1024.66 118.461L1023.48 116.693V116.104L1026.43 115.514L1028.79 113.746L1031.14 111.977L1032.91 111.388L1033.5 110.799H1034.68L1035.27 110.209L1035.86 110.799L1036.45 111.388V111.977H1037.04L1037.63 112.567L1039.4 113.746L1040.58 114.335L1042.35 114.925L1044.71 115.514L1049.43 116.104ZM1094.25 115.514L1092.48 119.64L1091.89 122.588L1092.48 124.356L1093.07 126.714L1091.3 129.072L1086.58 132.019L1085.4 134.377L1083.63 136.735L1082.45 139.092L1081.27 144.398L1080.68 146.755L1078.91 149.703L1077.14 151.471L1075.37 152.65L1073.02 153.829L1070.66 154.418L1067.71 155.008L1064.76 154.418L1064.17 152.65V148.524V146.166L1061.81 143.219L1061.22 141.45L1060.04 140.271H1058.27L1055.32 140.861L1051.19 143.219L1050.02 143.808H1048.84L1047.07 142.629L1047.66 141.45L1049.43 140.271L1050.02 139.682L1054.14 132.019L1056.5 129.072L1060.63 126.124L1062.99 125.535H1064.76L1065.94 126.714L1066.53 127.303L1067.71 130.84V131.43L1069.48 133.787L1070.07 134.377L1070.66 134.966V132.019L1072.43 130.251L1075.37 127.893L1079.5 121.409L1081.86 119.051L1084.81 113.746L1086.58 112.567L1087.17 111.388L1088.35 110.799L1089.53 110.209L1091.3 110.799L1092.48 111.977L1094.25 115.514ZM1190.37 114.925L1190.96 116.693V127.303L1190.37 129.072L1189.19 130.84L1186.24 131.43H1183.88L1177.4 133.198L1166.78 133.787L1147.32 137.324H1142.6L1136.12 136.735H1134.94L1133.76 137.324L1132.58 137.913L1130.22 139.092L1127.86 139.682L1125.5 140.861L1123.14 141.45L1121.96 142.04H1121.37H1120.78L1119.6 140.861L1119.01 140.271L1116.66 139.682L1116.07 140.271H1114.89L1111.94 142.04H1111.35L1110.76 142.629L1109.58 143.219L1108.99 143.808L1107.81 144.398L1106.63 143.808L1105.45 142.629L1104.27 142.04H1103.68L1101.32 143.219V143.808L1099.55 143.219L1098.96 142.04L1098.37 140.861L1097.78 139.682L1097.19 137.913L1098.37 136.145L1101.91 133.198L1103.09 131.43L1105.45 127.303L1106.04 125.535L1113.12 120.819L1116.66 120.23H1117.83L1118.42 119.64L1120.19 117.872L1121.37 117.282L1121.96 116.693V115.514H1120.78L1118.42 116.104L1115.48 116.693L1107.22 120.819H1103.68L1104.27 115.514L1105.45 114.335L1107.22 113.156L1108.4 111.977L1108.99 110.209L1109.58 108.441L1110.76 106.672L1111.94 105.493L1113.71 104.904L1116.07 105.493L1121.96 104.904H1124.32L1126.09 106.672L1126.68 111.977L1128.45 113.746L1133.17 110.799L1135.53 109.03H1138.48L1148.5 107.851L1162.65 109.03L1167.37 107.851L1168.55 107.262H1169.14H1170.91H1171.5L1172.09 107.851L1172.68 108.441L1174.45 109.03L1180.35 107.851H1183.88H1185.06L1185.65 108.441L1186.83 109.62L1189.19 113.746L1190.37 114.925ZM866.609 140.271L870.148 140.861L872.506 141.45L873.686 143.808L872.506 146.755L868.968 148.524L866.02 146.166L864.84 142.04L866.609 140.271ZM791.124 123.177L793.483 123.767L795.252 126.124V128.482L793.483 130.84H791.124L789.354 129.661L786.995 125.535L788.175 124.946L788.765 124.356L789.354 123.767L791.124 123.177ZM779.919 396.685H780.509L782.278 397.275L781.688 398.454L779.919 399.633L777.56 400.811L775.201 401.401H772.842L769.893 400.811V400.222L771.073 398.454L774.021 396.685H777.56H779.919Z" fill="#BCBCBC" stroke="#BCBCBC" stroke-width="0.5" stroke-linecap="round" stroke-linejoin="round"/>
<path d="M-178.984 142.04L-177.804 142.629L-176.625 144.398V146.166L-177.215 146.756H-178.394L-181.343 147.345H-190.779L-191.958 146.756L-192.548 144.987L-191.958 143.219L-190.189 142.04L-190.779 140.861L-191.368 140.272L-185.471 141.45L-178.984 142.04ZM-379.493 -59.5545L-377.134 -57.1965L-374.775 -55.4282L-371.826 -53.6599L-364.159 -51.8914L-358.852 -51.3019L-357.083 -50.7126H-355.314L-352.955 -51.3019L-348.826 -53.6599L-346.468 -54.2492L-344.109 -53.6599L-340.57 -49.5336L-333.494 -40.6918L-331.724 -39.5128L-329.365 -38.9235H-324.058L-319.34 -39.5128L-315.212 -40.6918L-314.032 -41.2812H-309.315H-306.956L-302.238 -43.0496L-299.289 -43.6391L-295.161 -42.4601L-293.392 -41.8708L-292.212 -42.4601L-291.623 -43.0496L-291.033 -43.6391L-288.674 -43.0496L-286.905 -41.2812L-285.136 -40.1023L-283.366 -38.9235L-280.418 -37.7445H-278.059L-276.879 -38.9235L-275.7 -41.2812L-276.29 -43.0496L-275.7 -43.6391L-275.11 -44.2285L-273.341 -43.6391L-272.751 -43.0496L-272.161 -41.8708L-271.572 -40.6918L-270.982 -39.5128L-271.572 -37.155L-273.341 -32.4394V-29.4921V-28.3131L-270.392 -24.187L-269.213 -23.5975L-268.033 -23.0081L-266.264 -23.5975H-265.085L-263.905 -21.8291L-267.444 -20.6503L-269.802 -20.0608L-270.392 -18.8818L-269.802 -17.703L-269.213 -15.3452L-268.033 -13.5767L-266.854 -12.9872L-265.085 -11.8084L-262.726 -10.0399L-261.546 -7.68213L-262.136 -5.32434L-263.905 -4.73485L-270.982 -5.32434L-269.213 -2.96654L-266.264 -1.19806L-259.777 1.74922L-258.008 -0.0192566L-256.239 -2.37704L-254.469 -4.14536L-252.111 -4.73485L-250.341 -4.14536L-248.572 -2.37704L-247.393 -0.608749L-245.623 2.33853L-245.034 4.6965V6.46481L-246.213 10.5911V12.3594V17.075L-247.393 19.4329L-251.521 22.3802L-252.7 24.738V34.1694L-243.265 41.2427L-227.932 47.7268L-226.162 48.3163H-223.214L-220.855 48.9058L-218.496 49.4951L-216.137 51.2636L-212.009 55.3897L-209.65 57.1582L-205.522 58.337L-203.163 59.5159H-201.394H-200.804L-198.445 58.9265H-196.676L-194.317 60.1054L-191.958 63.6422L-190.189 64.2315H-187.24L-184.881 63.0527L-180.753 60.6949L-176.625 58.337L-174.266 57.7477L-171.907 57.1582L-169.548 56.5687L-166.01 54.2109H-163.061L-148.318 56.5687L-146.549 55.9792L-144.19 55.3897L-143.6 54.8004H-140.651L-135.934 56.5687L-133.575 57.1582L-131.216 56.5687L-129.447 55.3897L-127.088 52.4424L-125.318 51.2636H-123.549L-121.78 51.8531L-118.831 52.4424L-116.472 51.8531L-114.703 51.2636L-106.447 44.19L-102.909 43.6005L-99.3702 45.9585L-94.6524 51.8531L-91.7038 54.2109L-88.1653 55.3897L-85.2167 55.9792L-80.4987 54.2109H-78.1399L-76.3707 54.8004L-72.2426 58.9265L-70.4734 60.1054H-69.2939L-67.5248 60.6949L-65.1659 60.1054L-63.9864 60.6949H-62.8068L-61.0377 62.4632L-56.3199 65.4105L-54.5506 67.1788L-53.9608 69.5368V71.8946L-54.5506 77.1997L-55.1404 77.7892L-56.3199 80.1469L-56.9095 81.3259V82.5047V83.6837L-56.3199 84.8625V85.452V90.7571L-61.0377 107.852L-65.7555 131.43V134.966L-66.3452 137.324V138.503V140.272L-65.1659 142.629L-64.5761 147.935V150.292L-62.8068 151.471L-61.6274 150.292L-61.0377 147.345V142.04L-58.6788 144.398V147.935V155.597L-58.089 157.955L-56.3199 160.313L-54.5506 162.081L-52.7815 162.671L-50.4226 163.26H-48.6533L-45.7047 165.618L-39.8073 167.387L-38.628 169.155L-38.0382 170.334L-36.2689 172.102L-35.0896 173.871L-35.6793 176.818L-38.628 180.944H-43.3458L-53.9608 177.407L-56.3199 176.818L-62.8068 177.407L-65.7555 176.818L-65.1659 175.05L-62.8068 172.102L-63.3966 167.387L-67.5248 163.85L-72.8323 161.492H-77.5501L-82.268 164.439L-85.2167 165.618L-86.3961 163.85L-88.1653 162.081L-91.114 162.671L-96.4216 164.439H-97.0113L-101.139 163.85L-102.319 163.26L-103.498 160.903L-104.678 160.313L-107.037 160.903L-108.806 162.081L-110.575 162.671L-111.755 160.313V159.134L-111.165 157.366V156.187L-112.344 155.597H-113.524L-115.883 156.776L-117.062 157.366L-119.421 156.776L-122.37 156.187L-125.318 155.008L-127.088 153.24L-127.677 153.829H-128.267L-128.857 154.419V155.008L-129.447 153.24L-130.036 149.113L-130.626 148.524H-132.985L-134.754 149.113L-136.523 150.292L-137.113 151.471H-138.293H-140.651L-141.241 150.882L-140.651 149.113V148.524L-142.421 147.345H-143.6L-144.78 147.935L-146.549 147.345L-148.318 146.756L-150.087 143.219L-151.856 142.629L-155.395 142.04L-155.984 141.45L-157.164 139.682H-158.343L-161.882 140.272L-163.651 139.682L-167.779 137.324L-168.369 136.735L-168.958 135.556L-170.138 134.377L-170.728 133.788H-173.087L-174.856 134.377L-176.625 135.556L-178.984 134.377L-184.881 127.304L-187.24 125.535L-191.958 123.767L-196.676 122.588L-201.983 121.998L-216.727 123.767L-222.034 124.946L-226.162 127.304L-232.06 134.377L-236.188 136.735L-240.316 135.556H-241.495L-244.444 133.788L-245.034 134.377V135.556L-246.213 136.145H-247.393H-248.572L-249.752 134.966H-250.341L-252.111 136.145L-253.29 137.324L-254.469 137.914L-256.239 138.503H-258.008L-259.777 139.093L-260.957 139.682L-263.315 142.04L-265.085 140.861L-270.392 138.503L-274.52 137.914L-281.007 135.556H-289.853L-291.623 134.966L-293.392 133.788L-295.161 133.198H-297.52L-296.93 132.019V131.43L-298.699 129.661L-301.648 128.483L-304.597 127.893H-306.956L-308.135 128.483L-311.673 129.661H-312.853L-314.032 129.072L-314.622 128.483L-315.212 127.893L-316.981 127.304L-338.801 125.535L-341.16 124.356L-345.288 121.998H-345.878L-348.826 124.356H-349.416L-350.006 124.946H-351.185L-353.544 124.356L-355.903 121.409L-357.672 120.819L-361.211 121.409L-362.39 120.819L-363.57 120.23L-364.749 119.641H-365.929L-367.108 120.23L-368.288 122.588V124.946V126.714L-370.647 127.304L-371.236 126.714L-371.826 125.535L-372.416 123.767L-373.595 123.177L-374.775 123.767L-375.364 124.946L-375.954 127.304L-376.544 127.893L-377.134 129.072V130.251L-375.364 130.84V132.019L-375.954 132.609L-377.134 133.198L-379.493 132.609L-381.851 131.43L-383.621 129.661L-384.8 127.304H-385.39L-386.569 129.072L-388.928 128.483L-392.467 126.714H-394.236L-396.005 127.893H-397.774L-406.03 126.125L-406.62 124.356V123.177V121.998L-408.389 120.819H-409.569L-411.338 121.409L-412.518 121.998L-413.697 121.409L-414.876 120.23H-416.056H-421.953H-423.133H-423.722L-424.902 119.051L-426.081 118.462H-427.261L-428.44 119.051V119.641L-438.466 122.588H-439.055L-439.645 121.409L-440.235 120.23L-440.825 119.051L-442.004 118.462H-443.183L-444.953 117.872L-445.542 116.104V114.925L-446.132 113.746H-447.312L-447.901 114.925V116.104L-448.491 116.693L-449.67 118.462L-450.26 119.051H-451.44H-456.158H-458.516L-465.004 116.104H-464.414V114.925L-462.645 109.62V108.441V107.852V104.904V104.315L-462.055 103.136L-460.286 101.367L-458.516 99.0096L-453.799 96.6517L-446.722 90.1678L-440.825 86.631L-437.876 85.452L-435.517 84.2732L-433.158 82.5047L-431.389 81.9153L-430.799 82.5047L-429.62 83.0942L-428.44 83.6837H-427.261L-426.081 83.0942L-425.491 81.9153L-424.902 78.3786L-423.133 73.0734L-422.543 70.1261L-421.953 65.4105L-422.543 64.2315L-423.133 62.4632L-424.312 61.2842L-427.261 57.7477L-428.44 56.5687L-430.209 55.9792H-433.748L-436.107 54.8004V53.0319V50.6741L-436.697 50.0846V48.9058V48.3163V47.1373L-433.748 45.369L-432.568 43.6005L-434.337 42.4217L-434.927 40.0639L-436.697 34.1694L-434.927 19.4329L-434.337 17.075L-434.927 13.5384V8.23311L-434.337 2.92802L-432.568 1.15973L-429.62 1.74922L-427.261 2.92802L-425.491 3.51752H-424.312L-423.722 2.92802H-422.543H-421.953L-420.184 4.10701L-418.415 4.6965L-411.338 7.6438L-406.62 8.23311V7.05431L-406.03 5.87532L-405.441 4.6965L-404.851 4.10701L-404.261 3.51752L-403.082 2.92802L-400.723 1.15973L-397.184 -1.19806L-395.415 -2.96654L-393.646 -4.73485L-388.928 -8.86111L-387.159 -10.0399V-11.2189V-12.3979L-388.338 -17.1135V-18.8818L-387.749 -23.0081L-388.338 -33.0289L-387.749 -35.9762L-385.98 -46.5863V-48.9441L-384.8 -51.8914L-380.082 -58.965L-379.493 -59.5545ZM74.6005 -39.5128L75.1902 -36.5655L73.421 -35.3867H68.1134L66.934 -35.9762L64.575 -36.5655L62.8058 -37.155L61.6263 -37.7445L61.0367 -38.334L59.8572 -38.9235L59.2675 -38.334L58.6777 -37.7445H58.0881L57.4983 -37.155H56.3188L55.729 -37.7445H55.1394L54.5497 -38.334L52.7803 -38.9235L49.2421 -36.5655H48.6523V-35.3867L49.8317 -34.7972L51.0112 -34.2077L52.7803 -33.6182L53.9599 -33.0289L54.5497 -32.4394L55.1394 -31.2604L52.1908 -29.4921L49.8317 -30.0816L45.1139 -33.6182L43.9344 -32.4394L43.3448 -31.2604V-30.6709H43.9344V-30.0816L44.5241 -28.9026V-28.3131L43.9344 -27.7236L43.3448 -27.1343H42.755L42.1653 -27.7236H41.5755L39.2166 -30.0816V-31.2604L40.3961 -35.3867L36.2679 -34.7972L33.9091 -35.3867L33.3193 -36.5655L33.9091 -39.5128L35.0884 -41.2812L36.2679 -42.4601L38.0371 -44.2285L36.8577 -45.9968L38.0371 -47.1758L40.3961 -47.7653H42.755H52.7803L62.2161 -46.5863L64.575 -45.4073L72.8314 -41.2812L74.6005 -39.5128ZM-259.777 -177.446L-258.008 -176.267L-256.829 -175.088L-255.649 -173.32L-255.059 -170.372L-255.649 -168.015L-256.239 -165.657L-258.008 -163.888L-259.777 -163.299H-260.957H-263.905L-265.085 -163.888V-164.478H-266.264L-268.033 -163.299H-270.982L-272.161 -165.067V-166.836L-273.341 -169.783L-272.751 -170.962L-269.213 -173.32V-173.909L-266.264 -176.856L-265.085 -176.267L-263.315 -176.856L-261.546 -177.446H-259.777ZM-102.909 -38.334L-100.55 -37.155L-97.6011 -35.9762L-95.242 -34.2077L-93.4729 -30.6709L-97.0113 -30.0816L-102.319 -27.1343L-110.575 -25.9553L-113.524 -23.0081L-115.883 -22.4186H-118.831L-121.19 -21.2397L-123.549 -17.1135L-121.78 -16.524L-120.601 -15.3452V-14.1662L-122.959 -12.9872H-127.677L-134.164 -13.5767L-142.421 -14.7557H-144.78L-147.138 -15.3452L-149.497 -12.9872H-153.626L-155.984 -11.8084L-157.164 -10.0399L-157.754 -8.27162L-158.343 -7.09264L-158.933 -5.32434L-159.523 -3.55603L-160.702 -0.608749L-162.472 -0.0192566L-164.83 0.570236L-166.01 -0.0192566L-167.189 -1.19806L-169.548 -2.37704L-175.445 -1.78755L-193.727 -2.96654L-195.496 -3.55603L-197.855 -4.14536L-203.163 -1.78755L-205.522 -2.37704L-206.701 -6.50333L-207.291 -7.68213L-207.881 -8.27162V-8.86111L-206.701 -9.45061V-10.6294H-207.881L-210.829 -11.8084H-211.419L-212.009 -10.6294V-8.27162L-212.599 -7.09264L-211.419 -5.91383L-209.06 -4.14536L-207.881 -2.96654V-1.78755L-210.24 -1.19806L-246.213 -9.45061H-250.931H-255.059H-256.829L-257.418 -10.6294L-258.008 -14.1662V-15.9345L-256.829 -17.703L-257.418 -18.2925L-258.598 -16.524L-259.777 -17.703L-260.367 -19.4713L-260.957 -21.2397L-260.367 -23.5975L-259.777 -24.187H-258.598L-256.239 -24.7764L-252.7 -27.1343L-249.162 -30.0816L-243.265 -37.155V-38.9235L-239.726 -40.1023L-235.008 -40.6918L-231.47 -41.2812H-227.342L-217.316 -42.4601L-207.881 -40.6918H-193.137L-173.087 -41.8708L-163.651 -40.6918L-146.549 -42.4601L-132.395 -41.8708L-117.062 -44.2285L-111.755 -43.6391L-109.396 -42.4601L-107.037 -41.2812L-105.268 -40.1023L-102.909 -38.334ZM-39.2176 -12.9872H-38.0382H-36.8587L-35.6793 -12.3979V-10.6294V-8.86111H-36.2689L-46.2944 -9.45061H-48.6533H-49.8328L-50.4226 -10.0399V-11.2189L-49.8328 -11.8084L-49.2431 -12.3979L-45.1149 -14.1662L-43.9355 -14.7557L-43.3458 -14.1662L-40.3971 -12.9872H-39.2176ZM-65.1659 -17.703L-63.3966 -14.7557L-62.2172 -12.9872V-9.45061L-62.8068 -7.09264H-63.9864L-66.935 -8.86111L-69.8837 -9.45061L-70.4734 -10.6294H-72.8323L-74.0118 -11.2189L-75.1912 -13.5767L-76.3707 -16.524L-76.9605 -18.8818L-74.0118 -21.8291L-70.4734 -22.4186L-68.1145 -21.8291L-66.3452 -20.0608L-65.1659 -17.703ZM112.343 -15.9345V-15.3452L112.933 -13.5767L112.343 -8.86111L110.574 -6.50333L105.856 -5.32434L101.138 -5.91383L96.4206 -8.27162L95.2411 -10.6294L96.4206 -11.8084H97.0102L97.6 -11.2189L98.1897 -11.8084L99.3693 -14.7557H99.9589L100.549 -13.5767L101.138 -11.8084L101.728 -11.2189L102.318 -10.6294H104.087L106.446 -9.45061H109.984H111.164V-10.0399H110.574L109.984 -11.2189L109.395 -12.3979L109.984 -12.9872L110.574 -13.5767H111.164L111.753 -12.9872V-13.5767V-14.7557L112.343 -15.9345Z" fill="#BCBCBC" stroke="#BCBCBC" stroke-width="0.5" stroke-linecap="round" stroke-linejoin="round"/>
<path d="M319.339 106.67L319.929 107.26L321.108 107.849L322.288 109.028L322.878 110.207L322.288 110.797L321.698 111.386L319.339 112.565L316.391 115.512L314.032 119.049L307.545 132.017L306.365 133.786L304.006 134.964L302.827 134.375L299.288 132.017L298.109 130.838V129.659L299.288 127.891L301.057 124.354V122.586L299.878 120.817L298.699 119.639H298.109V119.049L297.519 113.744V112.565L298.109 110.797L299.288 110.207L305.775 106.67H307.545H319.339ZM199.034 121.996L203.162 123.175L207.29 126.712L210.829 130.838L211.418 135.554L210.829 137.322L206.7 143.217L205.521 144.396L204.931 146.164L204.342 155.006L203.162 156.774L198.444 161.49L197.265 163.848L194.906 167.974L192.547 171.511L189.598 177.405L185.47 180.942L183.111 183.889L184.291 187.426L183.701 189.194L184.291 190.373H185.47L186.65 188.605L187.829 188.015L189.009 189.194H190.188L191.367 190.373L193.727 190.963L190.778 195.089L186.06 195.679L184.291 195.089L180.163 198.036H177.214L175.445 196.857L177.804 193.91L178.393 190.963L180.163 188.015L178.393 187.426L174.265 188.015L171.317 190.373V193.321L171.906 197.447V201.573L170.137 200.984V199.805V198.036L168.958 196.857H168.368L167.189 198.036L166.009 198.626L165.419 198.036L164.83 196.857L164.24 195.679L163.06 195.089L161.291 195.679L156.573 197.447L154.804 198.036L154.214 197.447L153.035 196.268H152.445H151.266L149.497 197.447L148.907 198.036L147.727 196.857L145.958 193.91L144.189 192.731H143.01L137.112 192.142L136.523 193.91L135.343 195.089L134.164 194.5L132.394 193.321L133.574 192.731L134.753 192.142V191.552L134.164 190.373H132.984H131.805L130.625 190.963H129.446V192.142V193.321V195.679L128.266 196.268H127.087L125.907 195.679L125.318 195.089L124.728 194.5L123.548 191.552L122.959 190.373L121.189 189.194L120.6 189.784L120.01 190.373H118.241H116.472L109.395 186.247L106.446 185.658L105.267 182.71V179.763L105.856 177.405L107.036 174.458L109.395 175.637L111.164 174.458L111.754 175.637V177.405L112.344 177.995H115.292L118.241 178.584L119.42 177.995L121.189 177.405L122.959 176.226L124.138 176.816H125.318L126.497 177.405H127.677L128.266 176.816L128.856 176.226L130.035 175.637H130.625L131.215 176.226L131.805 177.995L132.394 179.174L134.164 176.816L135.343 176.226V175.048L131.805 173.279L132.394 168.563L132.984 164.437L133.574 157.364L132.394 150.88L129.446 148.522L128.266 142.038L130.625 137.912L132.984 137.322H136.523H137.112L137.702 136.143L138.881 134.375L139.471 133.196L141.24 132.017L144.779 130.249L145.958 129.07L156.573 118.46L158.343 117.281L168.958 113.155H170.727L174.265 114.923L183.111 117.281L187.829 117.87L189.598 119.049L191.957 120.228L193.727 120.817L199.034 121.996ZM485.053 104.902L488.002 106.67L490.361 109.028L490.951 111.976L489.772 115.512L488.592 117.281L486.823 119.049L483.874 120.228H480.926L477.387 116.691V111.386L479.746 106.67L485.053 104.902ZM498.618 161.49H498.028L497.438 162.079H496.848L497.438 163.258L496.848 163.848L496.259 164.437L495.079 165.616V167.384L495.669 168.563L496.259 170.332L496.848 172.1H496.259L495.669 172.69V173.279L496.259 174.458L493.899 175.637L492.72 176.816L490.951 177.405L489.182 175.637L488.592 177.405L487.413 177.995H486.823L485.053 176.816L483.874 176.226L482.695 176.816L480.926 177.405L473.849 178.584L471.49 177.995L468.541 175.637L466.182 171.511L465.003 170.921L463.234 170.332L462.054 170.921V172.1L460.875 173.279L457.926 174.458L453.208 173.279L450.26 174.458L447.311 173.279L445.542 173.869L443.183 175.637L440.234 177.405L441.414 177.995L443.183 179.763L444.362 180.353L445.542 180.942H454.388L463.823 182.121L466.182 183.3L467.362 184.479V185.068L468.541 186.837L469.131 187.426L468.541 188.605L466.772 189.194L464.413 189.784H462.644L460.285 189.194L459.106 188.605L457.336 188.015H456.746V188.605L455.567 189.194L454.977 189.784L453.798 188.605L449.08 185.068L446.721 183.889H441.414L436.106 184.479L412.517 191.552L406.619 189.784L403.671 183.3V180.353L405.44 177.995L407.209 175.637L408.978 172.69L409.568 170.921V168.563V166.795L408.978 165.616L408.389 163.258L407.209 162.079L406.619 160.311V157.953L404.85 159.722L404.26 162.079L404.85 167.384L404.26 168.563L401.902 169.742L399.543 170.332L397.773 170.921L394.825 175.048L393.056 178.584L392.466 179.763L391.876 180.353H390.107L376.543 191.552L374.774 192.142L372.415 190.963L369.466 189.784L367.697 188.605L366.518 189.194L362.389 190.373H362.979L362.389 189.784H361.8H361.21L360.031 190.963L359.441 191.552L358.261 193.321L345.287 199.805L344.108 198.626H343.518L342.339 199.215H341.749L341.159 198.626L339.98 196.857L339.39 196.268H337.621L337.031 196.857L336.441 197.447L335.262 198.626L334.672 199.215H333.493H331.724H331.134L329.954 198.626L328.775 198.036L327.595 196.857H326.416L324.647 197.447L324.057 198.036L319.339 199.805L306.955 207.468L302.237 209.236L296.929 211.004L286.904 213.362L280.417 213.952L276.878 212.773L273.34 212.183L268.032 209.825H263.904L261.546 211.004L259.776 214.541L258.007 216.31L256.238 218.078L249.751 219.257L242.674 219.846L240.315 217.488L237.956 215.72L235.597 214.541H233.238H230.88L224.392 212.773L221.444 212.183L219.085 211.594L214.957 208.646L213.777 209.236L213.188 207.468L212.008 205.11L209.649 202.752L210.239 200.984L212.008 198.036L211.418 196.268L210.829 193.321V192.142L213.188 189.784L215.546 186.837L220.264 185.658L220.854 183.3V182.121L219.675 181.532L219.085 180.942V180.353L218.495 179.174L217.905 177.995L217.316 177.405H214.957L214.367 176.226L214.957 172.69V169.742L212.008 167.974L217.316 157.953L222.034 156.774L222.623 154.417V149.111L224.982 150.88L226.162 151.469H227.341H228.521L239.725 147.932L245.623 144.396L252.11 139.68L256.238 137.322L255.059 134.375L258.007 133.196L261.546 132.607L264.494 131.428L266.853 134.964H268.032L272.161 135.554L273.34 136.143L275.109 137.322L278.648 138.501L282.776 142.038L292.212 146.164L291.622 144.396V142.627L292.801 141.448V139.68L293.391 137.912L293.981 137.322L294.57 137.912L296.34 138.501H302.237L305.186 137.912L306.955 137.322L307.545 139.091L308.724 146.753L310.493 149.701L311.083 147.343L311.673 142.038L312.852 140.27L314.032 140.859L315.211 143.217L315.801 151.469L316.391 153.238L317.57 154.417L322.878 157.364L324.647 156.774L325.826 156.185H327.006H328.185L327.595 157.364V157.953L328.775 158.543H329.954L330.544 159.722L331.724 160.311L331.134 160.901L330.544 161.49V162.669H331.724L332.903 163.258H333.493V163.848L334.082 164.437H332.903H331.724L330.544 165.027L329.954 165.616L331.134 167.384L332.313 171.511L333.493 173.279L335.262 174.458L337.621 173.869L345.287 171.511L345.877 172.1L346.467 172.69L347.057 173.869V174.458V175.048H348.826H350.595L352.954 176.226L354.723 177.405L357.082 175.637L361.8 170.332L363.569 169.153H364.159L364.749 167.974L365.338 167.384H365.928V166.795L367.107 166.206H368.287L372.415 165.616H376.543H377.723L379.492 166.795H380.671H387.158L388.927 166.206L391.286 165.027L392.466 162.669L391.876 160.901L391.286 158.543L389.517 156.774L387.748 156.185L387.158 155.595L386.568 155.006L385.389 153.827L384.799 154.417V155.006L384.21 155.595L382.44 157.364L380.671 153.827L375.364 149.701L373.595 146.753H373.005L371.825 147.932L370.056 146.753L367.107 143.217L364.749 142.627L362.389 143.217L358.851 144.985H357.082L354.723 143.806L352.954 142.627L351.185 140.27L344.698 136.143L337.621 130.838L335.852 129.659L333.493 125.533L331.724 123.175L328.185 120.817L327.006 119.049L325.826 117.87H324.647L324.057 116.102L324.647 113.155L325.826 110.207L326.416 107.849L328.185 106.67H328.775H329.954H330.544L333.493 104.313H334.082L336.441 103.723L345.877 100.186L348.826 99.5969L353.544 99.0076L354.133 99.5969L354.723 101.365L355.903 101.955H356.492L357.672 101.365H358.851H361.21L366.518 101.955L371.825 102.544L375.953 104.902L377.723 109.618L378.312 114.333L378.902 116.691L380.081 117.87V118.46L384.21 123.175L386.568 127.891L387.748 129.659H388.338H388.927L389.517 129.07L393.645 132.607L394.825 133.196L396.594 132.607L398.953 131.428L400.722 129.659L403.671 126.712L404.85 125.533V124.354H405.44L407.209 123.765L408.389 122.586L410.158 119.639L412.517 118.46H414.876H417.235L417.824 119.049L420.183 120.817H421.363H426.081L427.26 121.407H427.85L428.439 121.996L429.029 122.586L432.568 123.175H433.747L435.516 125.533L439.644 133.196L438.465 134.964L437.875 137.912V143.217L434.926 151.469L434.337 153.238L436.106 153.827L437.875 152.059L439.644 149.701L440.234 148.522V147.932L441.414 144.985L443.183 142.627V141.448L442.593 140.27L442.003 138.501V133.786L443.772 130.249L446.131 127.891L449.08 125.533L453.208 124.354L458.516 123.175H464.413L469.131 124.354L471.49 124.944L473.259 125.533L474.438 127.301L475.618 129.659V133.196L477.387 138.501L480.926 144.985L480.336 149.111L478.567 153.827L479.156 157.953V160.901L479.746 163.258L480.926 165.616L483.874 166.206L485.643 165.616L488.002 165.027L489.772 163.848L491.541 162.669V162.079L490.951 160.901L490.361 159.722L492.72 159.132L493.31 158.543L493.899 157.364V156.185L494.489 155.006L496.259 156.774L497.438 159.132L498.618 161.49Z" fill="#BCBCBC" stroke="#BCBCBC" stroke-width="0.5" stroke-linecap="round" stroke-linejoin="round"/>
<path d="M703.254 4.69678H710.331L713.869 5.28607L716.228 7.05457L715.048 9.41235L710.921 10.5913L707.382 11.1806L705.613 10.0018L703.844 8.82281L696.767 7.64404L694.408 6.46503L692.049 7.05457L689.69 7.64404L686.741 7.05457L684.972 6.46503L684.383 5.28607L683.793 4.69678L684.383 3.51776L684.972 2.92828L686.741 1.74945L689.1 2.33875L693.229 4.10724L703.254 4.69678ZM679.665 -19.471L681.434 -21.2395L682.613 -21.8288L683.203 -19.471L682.613 -17.7028L682.024 -14.7554L681.434 -12.9869L677.895 -12.3976H673.767L671.409 -13.5765L670.819 -11.8082L669.639 -10.6292L665.511 -12.9869L663.742 -15.3449L664.332 -17.1132L661.383 -16.5237L659.024 -17.7028L657.255 -17.1132L656.665 -19.471L657.255 -20.65L660.204 -18.8815L663.152 -20.0605L663.742 -23.0078L663.152 -25.3656L663.742 -28.3129L665.511 -27.1341H667.87L670.819 -23.0078L676.716 -20.65L678.485 -19.471H679.665ZM717.997 -506.952L718.587 -507.542L717.408 -511.078L716.228 -514.026L715.048 -512.847H714.459L713.869 -514.026L712.69 -516.973L712.1 -518.152L710.921 -516.973L710.331 -514.615L709.741 -514.026H708.562L707.382 -515.204L706.792 -515.794L706.202 -516.973L706.792 -518.741H708.562L710.331 -519.331L710.921 -522.278L713.279 -521.689L714.459 -522.278L716.228 -525.225L716.818 -524.636H717.408L713.869 -531.709L712.1 -532.888H712.69L711.51 -534.067L709.741 -535.246L708.562 -535.835L694.998 -538.193H693.229L692.049 -537.604H690.87L689.69 -538.783L688.511 -539.962L687.331 -540.551L686.152 -541.141H684.972H682.024L680.255 -540.551L679.075 -539.372L677.306 -538.783H674.357L672.588 -538.193L666.691 -534.657H664.332L661.973 -534.067L659.614 -533.478L658.434 -531.709L657.845 -529.941L656.665 -527.583L654.896 -525.815L625.41 -507.542L621.281 -504.005L618.333 -502.236L615.384 -501.647L615.974 -499.879L617.743 -498.11L618.333 -496.342V-494.573L618.922 -493.395L619.512 -492.216L620.691 -491.626L621.871 -490.447L623.64 -484.553L624.82 -482.195L624.23 -481.605H623.64L622.461 -479.837L624.82 -477.479L627.179 -476.3L632.486 -473.942L636.025 -472.174L636.614 -471.585L637.204 -470.406V-468.637L638.383 -466.869L638.973 -466.28H641.332L640.742 -465.101L638.973 -463.332L638.383 -461.564V-460.385L638.973 -459.206V-458.027L638.383 -456.259L637.794 -451.543V-450.954L638.973 -448.596V-446.827V-445.649L638.383 -443.88L637.794 -437.986L638.383 -436.217L640.153 -430.912L640.742 -428.554V-418.534L641.332 -417.944L643.102 -415.586L643.691 -411.46L641.922 -406.744L636.614 -399.671L634.845 -396.134L633.666 -392.008L632.486 -387.882V-367.84L633.076 -366.072L635.435 -361.946L636.025 -360.177V-355.462V-354.283L635.435 -351.925V-350.746V-348.978L636.614 -345.441V-341.315L633.666 -334.241L634.256 -330.115L637.204 -326.578L638.383 -324.22L637.794 -322.452L637.204 -320.684V-317.736L637.794 -314.789L638.383 -312.431L639.563 -310.073L643.102 -306.537L644.281 -304.179L643.691 -303L642.512 -301.821L640.153 -300.053V-298.874L637.794 -287.674V-284.727L636.614 -282.958L634.256 -281.779H631.307L629.537 -281.19L627.768 -277.653L627.179 -263.506L624.82 -249.359L623.64 -247.001L622.461 -245.233L627.179 -238.16L628.358 -235.802L629.537 -231.086L630.717 -229.318L636.025 -223.423L636.614 -221.655V-219.297L641.922 -201.024L642.512 -196.308L643.102 -195.719L644.871 -192.182L645.46 -189.824L644.871 -189.235L641.922 -191.003L640.153 -190.414L636.025 -195.129L635.435 -196.308L634.845 -198.077L633.076 -201.613L631.896 -202.792H628.948L625.999 -202.203L623.64 -200.434L620.691 -199.255L615.384 -198.666L614.794 -198.077L611.845 -196.308L610.076 -195.129L605.359 -193.95L603 -192.771L602.41 -193.361L601.82 -193.95H600.051L592.974 -195.129L591.205 -195.719L590.026 -196.898H587.077L583.538 -196.308H581.769L580 -195.129L574.692 -189.824L574.103 -188.645L573.513 -186.287V-185.109L571.154 -183.34L568.795 -181.572L564.667 -180.393H559.36L554.052 -180.982L550.514 -183.34L549.924 -185.698V-188.056L548.745 -190.414L545.796 -191.593L543.437 -189.824L542.257 -187.466L541.078 -185.698L539.309 -187.466L538.719 -188.645V-191.593V-192.771L537.54 -193.95L536.36 -195.129L535.77 -195.719L535.18 -197.487H533.411L530.463 -196.898L528.104 -195.719L529.873 -192.771H526.924L525.155 -193.95L524.565 -195.719L523.976 -198.077L524.565 -199.255L525.155 -200.434L525.745 -201.613L525.155 -202.792L524.565 -203.971L523.386 -206.329L519.258 -211.634L516.899 -216.35L516.309 -221.065L516.899 -226.96L518.078 -230.497L518.668 -238.16L519.258 -240.517L521.027 -244.644L522.207 -248.18L522.796 -249.359L523.386 -249.949L525.745 -251.128L526.924 -251.717L528.694 -254.075L529.283 -256.433L529.873 -260.559L531.053 -264.096L535.77 -272.348L536.36 -276.474L532.232 -291.211L532.822 -295.926L533.411 -296.516L535.18 -297.105L536.36 -298.284L537.54 -301.821L538.129 -303.589L542.847 -311.842L544.026 -313.61L545.796 -330.704L547.565 -338.367L548.155 -343.083V-344.262L547.565 -346.03L546.975 -347.209V-348.388L545.206 -350.156L544.616 -351.335L545.206 -353.693L547.565 -358.409L548.155 -360.767L546.975 -365.482L546.385 -366.661L545.796 -367.251V-369.019L546.975 -370.787V-371.966L547.565 -373.145L546.975 -374.914V-376.682L549.924 -380.219L550.514 -381.987L548.155 -383.166L545.796 -382.577L544.616 -381.398V-379.04L544.026 -376.682L543.437 -378.45L542.847 -383.166L541.078 -386.703L535.77 -399.671L532.822 -403.797L531.642 -408.513L528.104 -413.228V-414.407L529.873 -418.534L531.053 -424.428L532.232 -426.786L534.001 -429.144L534.591 -430.912V-432.68L532.822 -438.575L532.232 -439.165V-439.754L531.053 -446.827L528.694 -453.311V-455.08L528.104 -459.206L527.514 -463.922V-464.511L526.334 -465.69L523.386 -468.637V-469.816L522.796 -471.585L523.386 -472.764L523.976 -473.942L525.155 -474.532L526.334 -475.121L527.514 -474.532L529.283 -473.942H530.463L532.232 -474.532L534.001 -475.121L538.129 -478.069L540.488 -479.248L542.847 -480.427L548.155 -481.605L549.334 -482.195L549.924 -483.374L548.745 -485.142L545.796 -489.268L538.129 -507.542L537.54 -509.31V-511.668V-514.026L538.129 -516.383V-518.152V-519.331L535.18 -524.636L536.95 -525.815H540.488L542.257 -526.404L544.616 -525.815L549.334 -524.636H552.283L559.949 -526.994L564.077 -529.351L565.847 -530.53L566.436 -532.299V-532.888V-534.067L565.257 -534.657L564.667 -535.246L564.077 -536.425L564.667 -538.193L565.257 -540.551V-541.73L561.129 -547.035L560.539 -551.751L561.129 -554.698L560.539 -556.466L559.949 -557.645L558.77 -559.414L558.18 -560.593V-561.772L559.949 -564.719L560.539 -567.077L559.949 -568.256L558.77 -570.024L557.591 -571.792L553.462 -575.329L551.693 -575.919L549.334 -577.097L548.155 -577.687L547.565 -578.866V-580.634L548.155 -582.403L548.745 -588.297V-590.655L550.514 -592.423L562.898 -603.623L564.077 -604.213H565.847H567.026L568.206 -604.802L569.975 -605.981L571.154 -607.749L576.462 -618.359L580.59 -620.128L587.667 -624.254L597.102 -629.559L599.461 -630.149H603.589L610.076 -629.559L625.41 -624.844L628.948 -624.254L631.896 -624.844L632.486 -626.022L633.076 -626.612L634.256 -629.559L634.845 -630.738L636.025 -631.917H638.973L641.332 -630.738L643.691 -628.97L656.075 -610.107L660.204 -605.391L664.332 -601.265L680.844 -587.708L685.562 -585.35L748.663 -572.382L754.561 -570.613L760.458 -567.666L762.817 -565.898L765.176 -564.129L771.663 -556.466L779.329 -550.572L782.278 -548.214L794.662 -541.73L797.021 -539.962L798.79 -537.604L799.97 -535.246L800.559 -532.299L801.149 -529.351V-526.994L800.559 -524.636L799.97 -522.278L798.201 -519.92L779.919 -501.058L778.15 -499.879L770.483 -495.163L768.124 -494.573L766.945 -493.984H765.176H763.406L758.689 -496.931L749.253 -505.184L740.407 -510.489L738.638 -511.668H736.869L734.51 -512.257H732.151L727.433 -511.078L723.305 -509.899L717.997 -506.952ZM655.486 -152.688L656.075 -147.973L656.665 -142.668V-137.952L656.075 -132.647L653.127 -125.573V-122.626L653.717 -116.731L653.127 -112.016L652.537 -106.121L651.358 -104.353L650.178 -101.995V-99.6372V-94.9216L649.588 -92.5637L648.999 -90.2059L647.819 -89.6164L646.64 -94.9216L646.05 -98.4583L645.46 -100.816L646.64 -113.195L646.05 -114.374L645.46 -114.963L643.691 -115.553L643.102 -116.731L643.691 -117.91L643.102 -119.089L641.922 -122.626L641.332 -123.805L641.922 -124.984L643.691 -127.342L644.281 -129.11V-136.184L643.102 -147.973L643.691 -163.888L644.871 -169.193L646.64 -172.73L647.819 -173.319L648.409 -172.73L648.999 -172.14L649.588 -170.962V-168.014L650.178 -166.246L651.358 -164.478L651.947 -162.709L652.537 -160.351L655.486 -152.688ZM799.38 12.3596L803.508 11.1806L805.867 13.5386L805.278 17.6647L802.919 19.4332L798.79 20.612H796.432L795.842 18.2542V16.4859L797.021 14.7174L797.611 12.9491L799.38 12.3596Z" fill="#BCBCBC" stroke="#BCBCBC" stroke-width="0.5" stroke-linecap="round" stroke-linejoin="round"/>
<path d="M72.2414 167.977L75.1901 168.566L76.9592 171.513L78.1387 173.871L79.9079 176.229L81.0874 179.766L79.3181 182.124L76.9592 184.482L74.0105 183.303L67.5235 179.176L65.1646 176.819L63.3954 176.229L62.8057 175.64L63.3954 174.461L67.5235 169.156L68.703 168.566H70.4721L72.2414 167.977ZM80.4976 123.178L84.6258 126.715L88.7538 129.662L91.7025 133.788L89.9333 138.504L88.7538 139.683L85.2154 143.22L82.8565 144.398L79.9079 147.346L78.7285 148.525L70.4721 149.114L69.2928 149.703L68.703 152.061L66.3441 153.83L51.0111 159.724L45.7035 162.672L42.1651 166.798L39.8062 171.513L38.0369 173.282L35.0882 174.461L33.3191 175.05L32.1396 177.408V179.766L33.9089 182.124L35.0882 181.534L34.4987 180.945L33.3191 179.176L35.678 177.997L36.2678 180.355L35.678 185.66L35.0882 187.429L33.3191 188.608L30.9602 189.197L29.1909 189.787H26.832H23.8834L21.5245 189.197L19.1656 187.429V185.66L21.5245 183.892L26.832 181.534L28.0116 179.766L29.7807 177.408V174.461L29.1909 172.103L28.6013 171.513L26.2423 167.387L25.6527 166.798H24.4732L23.8834 166.208L20.345 163.261L18.5759 161.493L17.9861 160.314L17.3963 158.545L15.0374 156.777L10.9094 153.83L2.65304 146.756L-0.295616 144.398L-15.6285 137.325L-20.3464 136.146H-33.9102L-38.0384 134.967L-41.5768 132.02L-44.5254 128.483L-53.961 114.926L-56.3201 103.726L-55.7303 100.779L-52.1919 99.5996L-49.2432 100.189L-48.0637 101.368L-46.8843 102.547L-45.115 104.315L-43.3459 104.905L-41.5768 104.315L-38.6281 102.547L-36.8588 103.726L-34.4999 104.315L-29.7822 104.905L-27.4231 105.494L-8.55182 111.978L-4.42363 110.799H6.78123L10.9094 109.62L15.6272 106.084L23.8834 97.8313L28.6013 96.063H30.9602H33.3191L35.678 97.2418L37.4473 98.4208L39.8062 99.5996L47.4726 101.368L66.9339 109.62L70.4721 111.978L74.0105 115.515L80.4976 123.178Z" fill="#BCBCBC" stroke="#BCBCBC" stroke-width="0.5" stroke-linecap="round" stroke-linejoin="round"/>
</g>
</svg>
